<svg xmlns="http://www.w3.org/2000/svg" width="120" height="120" viewBox="0 0 120 120">
  <g id="Group_10777" data-name="Group 10777" transform="translate(21896 15724)">
    <g id="Group_10776" data-name="Group 10776" transform="translate(-22131.326 -15842.18)">
      <g id="Group_487" data-name="Group 487" transform="translate(236.327 141.263)">
        <path id="Path_28" data-name="Path 28" d="M313.805,403.814a4.423,4.423,0,0,1,.138-.493,8.4,8.4,0,0,1,3.488-4.078c.3-.176.718-.481.969-.122a1.308,1.308,0,0,1-.081,1.042,6.713,6.713,0,0,1-3.971,3.542,4.624,4.624,0,0,1-.543.11m-16.054-1.74c.172.122.35.234.522.349-.515,1.688-4.949,5.22-6.255,4.994-.174-1.507,4.255-6.712,5.987-6.883a5.458,5.458,0,0,1-.386.718.5.5,0,0,0,.132.822m24.7,3.595a.775.775,0,0,0-.093-.958.75.75,0,0,0-.959-.11,2.254,2.254,0,0,0-.633.582,7.736,7.736,0,0,1-2.07,2.081,3.909,3.909,0,0,1-3.761.567,1.735,1.735,0,0,1-1.124-1.612,7.118,7.118,0,0,0,.69-.174,9.992,9.992,0,0,0,5.352-4.735,6.3,6.3,0,0,0,.675-1.942c.311-1.729-.752-2.811-2.386-2.473a4.819,4.819,0,0,0-1.354.471,10.387,10.387,0,0,0-5.021,6.333,4.9,4.9,0,0,1-.4,1.047c-.276.473-.564.487-1,.2-.97-.626-1.951-1.23-2.929-1.841-.381-.238-.763-.472-1.252-.774a2.242,2.242,0,0,0,.276-.165c1.491-1.3,2.962-2.622,4.479-3.884a1.9,1.9,0,0,0,.64-1.844c-.073-.654-.47-.9-1.016-.581a8.107,8.107,0,0,0-1.268.961c-.873.771-1.71,1.587-2.59,2.347a17.2,17.2,0,0,1-1.651,1.225c-.357.24-.492.146-.472-.294a17.12,17.12,0,0,1,.142-1.89c.244-1.542.546-3.074.8-4.615a3.415,3.415,0,0,0-.208-2.177c-.166-.32-.4-.537-.764-.286a3.1,3.1,0,0,0-1.5,2.194c-.1.767-.144,1.541-.226,2.311-.165,1.539-.4,3.074-.494,4.618-.125,2.067-.142,4.142-.208,6.213-.006.172-.024.343-.044.612-.111-.151-.148-.2-.182-.249a5.158,5.158,0,0,1-.7-3.534,7.01,7.01,0,0,0,.007-2.052,3.279,3.279,0,0,1-.083-1.35,1.611,1.611,0,0,0-1.677-2.019,4.032,4.032,0,0,0-1.508.4,20.505,20.505,0,0,0-8.164,7.637c-.093.147-.162.311-.3.587-.042-.249-.073-.352-.076-.457-.066-1.864-.116-3.728-.2-5.591a13.408,13.408,0,0,0-.215-2.211c-.233-1.092-1-1.452-1.9-.862a8.468,8.468,0,0,0-1.733,1.554,26.484,26.484,0,0,0-3.594,5.934c-.325.68-.636,1.366-.988,2.124a3.179,3.179,0,0,1-.092-.438c-.066-1.421-.117-2.844-.19-4.265a11.953,11.953,0,0,0-.541-3.685c-.4-1.045-1.179-1.246-1.919-.433a5.662,5.662,0,0,0-1.09,1.662c-.659,1.657-1.221,3.358-1.824,5.039a4.376,4.376,0,0,1-.282.694c-.175.306-.411.292-.511-.043a4.176,4.176,0,0,1-.191-1.113c-.021-1.439,0-2.879-.011-4.318a1.748,1.748,0,0,0-.624-1.5.659.659,0,0,0-.445-.144,1.668,1.668,0,0,0-1.444,1.631c-.011,1.768.02,3.541.151,5.3a20.8,20.8,0,0,0,.592,3.636,1.614,1.614,0,0,0,2.842.755,3.67,3.67,0,0,0,.865-1.361c.427-1.343.75-2.724,1.115-4.09.089-.334.164-.673.279-1,.046-.13.181-.225.276-.336.089.113.222.213.259.342a5.969,5.969,0,0,1,.178.925c.157,1.333.238,2.68.477,3.995a6.186,6.186,0,0,0,.817,2.122c.6.953,1.6.836,2.128-.153a3.848,3.848,0,0,0,.179-.382c.362-.9.7-1.815,1.087-2.7.757-1.735,1.52-3.466,2.326-5.176a5.275,5.275,0,0,1,.92-1.272c.317-.344.566-.237.634.234a7.634,7.634,0,0,1,.055,1.04,32.874,32.874,0,0,0,.646,6.641c.193.908.456,1.8.72,2.687A.869.869,0,0,0,289,412a1.484,1.484,0,0,0,1.535-1.47,3.609,3.609,0,0,0-.039-.553,3.248,3.248,0,0,0,2.559-.411c.406-.2.805-.419,1.193-.656a20.342,20.342,0,0,0,3.978-3.53c.227-.238.476-.453.658-.626.369.985.674,1.961,1.1,2.877a1.746,1.746,0,0,0,2.06,1.159c0,.288-.012.555,0,.819a7.167,7.167,0,0,0,.106,1.079c.09.421.331.807.758.831a1.076,1.076,0,0,0,1.143-.591,3.536,3.536,0,0,0,.337-1.212c.038-.93-.024-1.865-.02-2.8,0-.656.045-1.312.073-2.019a3.814,3.814,0,0,1,.6.2,29.159,29.159,0,0,1,5.012,3.132c.488.417,1,.8,1.524,1.17a.824.824,0,0,0,.973.065.5.5,0,0,1,.649.079,3.269,3.269,0,0,0,2.26.769,8.417,8.417,0,0,0,5.1-2.217,6.615,6.615,0,0,0,1.9-2.426m27.167-15.139a1.992,1.992,0,0,0-.928-.251,5.848,5.848,0,0,0-.845.1q-3.474.23-6.949.448c-.515.033-1.031.052-1.571.078.051-.534.114-1,.14-1.475.044-.8-.263-1.323-.814-1.446-.62-.138-1.072.173-1.358.94a2.518,2.518,0,0,0-.123.405c-.1.557-.2,1.116-.3,1.727-.246.02-.51.045-.775.061-1.495.094-2.991.166-4.483.294a2.442,2.442,0,0,0-1.085.386.769.769,0,0,0,0,1.329,1.131,1.131,0,0,0,.608.269,17.108,17.108,0,0,0,1.775-.133c1.212-.14,2.423-.3,3.7-.458-.033.315-.05.515-.075.715q-.477,3.761-.957,7.521c-.231,1.8-.451,3.6-.72,5.4a4.837,4.837,0,0,1-.483,1.415c-.265.528-.657.511-.964.017a2.645,2.645,0,0,1-.169-.334,12.542,12.542,0,0,1-.879-4.235,1.458,1.458,0,0,1,.577-1.346,1.183,1.183,0,0,0,.429-.81,3.827,3.827,0,0,0-1.549-2.966.863.863,0,0,0-1.43.445A4.99,4.99,0,0,0,330.1,400a25.3,25.3,0,0,0,.283,5.721,9.168,9.168,0,0,0,1.418,3.9c1,1.432,2.14,1.438,2.951-.107A14.85,14.85,0,0,0,336,406.189c.387-1.579.591-3.209.874-4.817a8.226,8.226,0,0,0-.027.931,39.915,39.915,0,0,0,1.262,10.079,12.917,12.917,0,0,0,.88,2.115.743.743,0,0,0,.965.472,1.113,1.113,0,0,0,.748-1.067,4.241,4.241,0,0,0-.16-.975c-.323-1.183-.709-2.35-.993-3.543a31.763,31.763,0,0,1-.667-6.781c-.062-3.277.031-6.548.288-9.86.184-.012.317-.023.45-.028,2.589-.085,5.179-.148,7.767-.27a7.523,7.523,0,0,0,2.1-.39.839.839,0,0,0,.134-1.525m-19.464,4.264a1.072,1.072,0,0,0,.525,1.311,6.819,6.819,0,0,0,1.019.427c.771-.072,1.265-.555,1.167-1.192a1.791,1.791,0,0,0-1.4-1.411,1.319,1.319,0,0,0-1.311.865m25.62,2.853a1.246,1.246,0,0,0-1.544-1.162,3.844,3.844,0,0,0-2.451,1.7c-.243.377-.453.778-.712,1.226.051-.683-.117-1.034-.552-1.25a1.043,1.043,0,0,0-1.284.228,2.19,2.19,0,0,0-.521.866,10,10,0,0,0-.422,2.454c.046,2.37.189,4.739.339,7.105.063,1,.6,1.349,1.518,1.111a1.416,1.416,0,0,0,1.088-1.564c-.037-1.121-.111-2.244-.085-3.364a11,11,0,0,1,.686-3.7,4.011,4.011,0,0,1,2.518-2.577c.342-.114.676-.254,1.017-.372a.6.6,0,0,0,.4-.7m14.585,4.5c.135.1.28.178.418.265-.381,1.582-4.873,5.194-6.231,5.018-.3-1.3,4.042-6.57,5.967-6.918-.142.29-.229.5-.343.692-.3.5-.283.608.189.943m-14.442,1.676c.119-.333.183-.577.29-.8a8.456,8.456,0,0,1,3.36-3.776c.3-.174.718-.482.97-.126a1.3,1.3,0,0,1-.077,1.04,6.718,6.718,0,0,1-4.011,3.56,4.483,4.483,0,0,1-.532.1m18.857,4.77a1.026,1.026,0,0,0-.1-1.307,5.7,5.7,0,0,1-.943-4.215,5.483,5.483,0,0,0-.017-1.86,2.812,2.812,0,0,1-.088-1.258,1.615,1.615,0,0,0-1.656-2.074,4.057,4.057,0,0,0-1.508.4,20.063,20.063,0,0,0-7.885,7.2,5.76,5.76,0,0,1-2.924,2.376,3.124,3.124,0,0,1-2.9-.2,1.639,1.639,0,0,1-.79-1.434,6.3,6.3,0,0,0,.655-.158,10.014,10.014,0,0,0,5.411-4.8,6.221,6.221,0,0,0,.64-1.854c.328-1.751-.732-2.849-2.388-2.507a4.764,4.764,0,0,0-1.354.473,10.238,10.238,0,0,0-5.013,6.384,2.08,2.08,0,0,1-1.2,1.584c-.408.156-.365.456-.161.747a1.066,1.066,0,0,0,.444.38,1.663,1.663,0,0,1,.941,1.1,3.756,3.756,0,0,0,4.6,2.627,18.081,18.081,0,0,0,2.794-1.108,3.691,3.691,0,0,0,.413-.232,2.459,2.459,0,0,0,3.281.96,12.107,12.107,0,0,0,3.89-2.584c.85-.818,1.669-1.673,2.525-2.535.26.823.471,1.6.75,2.34a2.933,2.933,0,0,0,1.238,1.632,1.147,1.147,0,0,0,1.349-.075m2.953-11.239c.007-1.386.213-2.771.332-4.189-.031-.508-.029-1.049-.106-1.577-.092-.618-.381-.923-.821-.994a1.055,1.055,0,0,0-1.151.717,5.683,5.683,0,0,0-.4,1.541,69.83,69.83,0,0,0-.044,10.189,32.638,32.638,0,0,1,.061,6.2,4.316,4.316,0,0,0,.091,1.546,1.131,1.131,0,0,0,.623.711,1.361,1.361,0,0,0,1.775-1.4c-.086-1.42-.185-2.839-.221-4.261-.072-2.827-.149-5.656-.135-8.483" transform="translate(-260.33 -322.103)" fill="#f78c2a"/>
        <path id="Path_29" data-name="Path 29" d="M291.057,343.924a30.6,30.6,0,0,0,19.642-7.1,30.154,30.154,0,0,0-39.1.156,30.6,30.6,0,0,0,19.454,6.944" transform="translate(-260.33 -282.472)" fill="#f78c2a"/>
        <path id="Path_30" data-name="Path 30" d="M255.94,224.739a16.46,16.46,0,1,1,22.327-.091,36.411,36.411,0,0,1,12.769,7.171,30.724,30.724,0,1,0-47.816.19,36.424,36.424,0,0,1,12.72-7.27" transform="translate(-236.327 -181.895)" fill="#b52b6b"/>
      </g>
      <rect id="Rectangle_132" data-name="Rectangle 132" width="14.015" height="56.628" transform="translate(340.073 143.461)" fill="#b52b6b"/>
      <g id="Group_488" data-name="Group 488" transform="translate(297.033 122.18)">
        <path id="Path_31" data-name="Path 31" d="M450.776,122.18a14.015,14.015,0,0,0-14.015,14.015v7.267H426.291v11.663h10.471V200.09h14.014V155.125h12.146V143.462H450.776v-4.224a3.043,3.043,0,0,1,3.043-3.043H465.05V122.18Z" transform="translate(-426.291 -122.18)" fill="#b52b6b"/>
      </g>
      <rect id="Rectangle_133" data-name="Rectangle 133" width="14.015" height="14.014" transform="translate(340.073 122.18)" fill="#f78c2a"/>
    </g>
    <rect id="Rectangle_7572" data-name="Rectangle 7572" width="120" height="120" transform="translate(-21896 -15724)" fill="none"/>
  </g>
</svg>
